<svg xmlns="http://www.w3.org/2000/svg" width="1120" height="367" viewBox="0 0 1120 367">
<rect width="100%" height="100%" fill="#f8fafc"/>
<text x="48" y="58" font-family="Arial, sans-serif" font-size="30" font-weight="700" fill="#0f172a">LLM Plain Eval Comparison</text>
<text x="48" y="88" font-family="Arial, sans-serif" font-size="15" fill="#475569">2026-05-23T14:22:50 | 1 questions</text>
<rect x="40" y="120" width="1040" height="128" rx="8" fill="#ffffff" stroke="#e2e8f0"/>
<rect x="40" y="120" width="8" height="128" rx="4" fill="#2563eb"/>
<text x="72" y="158" font-family="Arial, sans-serif" font-size="22" font-weight="700" fill="#0f172a">openai</text>
<text x="72" y="186" font-family="Arial, sans-serif" font-size="13" fill="#64748b">gpt-4.1-mini</text>
<text x="72" y="220" font-family="Arial, sans-serif" font-size="24" font-weight="700" fill="#2563eb">100.0%</text>
<text x="170" y="219" font-family="Arial, sans-serif" font-size="13" fill="#475569">pass rate over scored answers</text>
<rect x="360" y="177" width="690" height="28" rx="6" fill="#e2e8f0"/>
<rect x="360" y="177" width="690" height="28" rx="6" fill="#22c55e"/>
<rect x="1050" y="177" width="0" height="28" fill="#ef4444"/>
<rect x="1050" y="177" width="0" height="28" fill="#f59e0b"/>
<rect x="1050" y="177" width="0" height="28" fill="#94a3b8"/>
<text x="360" y="158" font-family="Arial, sans-serif" font-size="14" font-weight="700" fill="#334155">passed 1</text>
<text x="505" y="158" font-family="Arial, sans-serif" font-size="14" font-weight="700" fill="#334155">failed 0</text>
<text x="640" y="158" font-family="Arial, sans-serif" font-size="14" font-weight="700" fill="#334155">errors 0</text>
<text x="775" y="158" font-family="Arial, sans-serif" font-size="14" font-weight="700" fill="#334155">unscored 0</text>
<text x="940" y="225" font-family="Arial, sans-serif" font-size="13" fill="#64748b">total 1</text>
<rect x="48" y="312" width="14" height="14" rx="3" fill="#22c55e"/>
<text x="70" y="324" font-family="Arial, sans-serif" font-size="13" fill="#475569">Passed</text>
<rect x="164" y="312" width="14" height="14" rx="3" fill="#ef4444"/>
<text x="186" y="324" font-family="Arial, sans-serif" font-size="13" fill="#475569">Failed</text>
<rect x="280" y="312" width="14" height="14" rx="3" fill="#f59e0b"/>
<text x="302" y="324" font-family="Arial, sans-serif" font-size="13" fill="#475569">Error</text>
<rect x="396" y="312" width="14" height="14" rx="3" fill="#94a3b8"/>
<text x="418" y="324" font-family="Arial, sans-serif" font-size="13" fill="#475569">Unscored</text>
</svg>
